<svg xmlns="http://www.w3.org/2000/svg" viewBox="0 0 64 64" role="img" aria-label="CCTV camera icon">
  <rect width="64" height="64" rx="12" fill="#162033"/>
  <path d="M37 42l8 9" stroke="#8fb4d8" stroke-width="5" stroke-linecap="round"/>
  <path d="M49 50h-9" stroke="#8fb4d8" stroke-width="5" stroke-linecap="round"/>
  <path
    d="M11 28.5 42.5 17c2.8-1 5.9.4 6.9 3.2l3.2 8.8c1 2.8-.4 5.9-3.2 6.9L18 47.3 11 28.5Z"
    fill="#e8eef8"
  />
  <path d="M11 28.5 18 47.3l-4.7 1.7c-2.2.8-4.7-.3-5.5-2.6L4.6 37.6c-.8-2.2.3-4.7 2.6-5.5L11 28.5Z" fill="#2b6cb0"/>
  <path d="M43 17.1c2.6-.7 5.4.8 6.3 3.5l3.2 8.8c.9 2.6-.2 5.4-2.5 6.6l-7-18.9Z" fill="#bfe3ff"/>
  <path d="M19 26.5 39 19.2" stroke="#162033" stroke-width="3" stroke-linecap="round" opacity=".35"/>
  <circle cx="47.5" cy="27" r="3.5" fill="#162033"/>
</svg>
